<svg width="20" height="25" viewBox="0 0 20 25" fill="none" xmlns="http://www.w3.org/2000/svg">
<path d="M10 0L8.75 1.27582C8.75 1.27582 6.61667 3.47813 4.46667 6.33354C2.31667 9.18894 0 12.6063 0 15.887C0 18.3039 1.05357 20.6218 2.92893 22.3309C4.8043 24.0399 7.34784 25 10 25C12.6522 25 15.1957 24.0399 17.0711 22.3309C18.9464 20.6218 20 18.3039 20 15.887C20 12.6063 17.6833 9.18894 15.5333 6.33354C14.2072 4.57811 12.7773 2.88971 11.25 1.27582L10 0ZM10 4.75395C10.7333 5.54374 11.4 6.19684 12.8 8.04982C14.8167 10.723 16.6667 14.1252 16.6667 15.887C16.6667 19.2588 13.7 21.9623 10 21.9623C6.3 21.9623 3.33333 19.2588 3.33333 15.887C3.33333 14.1252 5.18333 10.723 7.2 8.04982C8.6 6.19684 9.26667 5.54374 10 4.75395Z" fill="#D20000"/>
</svg>
